# xmcd
#
# Track frame offsets:
#	150
#	22389
#	41685
#	67113
#	86620
#	110226
#	132205
#	150550
#	168280
#	191514
#	209759
#
# Disc length: 3093 seconds
#
# Revision: 0
# Processed by: cddbd v1.5.2PL0 Copyright (c) Steve Scherf et al.
# Submitted via: EZCDAudioConverter 2.1.7.1
#
DISCID=a30c130b
DTITLE=Mo' Horizons - The Banana Remixes 1/2
DYEAR=1900
DGENRE=
TTITLE0=Around Ya [Flamingo Star Hippie Remix]
TTITLE1=Banana Boogie [Sono Rhizmo' Remix]
TTITLE2=Jungle Affair [The Soul Session Remix]
TTITLE3=So On [Jazz.K.Lipa Remix]
TTITLE4=Cowboy Bossa [Fab Samperi Extended Remix]
TTITLE5=Free And Easy [Renegades Of Jazz Remix]
TTITLE6=Make It Real [Una Mas Trio Remix]
TTITLE7=Banana Boogie [Djtzinas and The Redgreen Wood Soundsystem Remix]
TTITLE8=Koito Pie Bira [Palov featuring Angelos Angelides Remix]
TTITLE9=In Love With An Old Man [Omegaman Remix]
TTITLE10=Around Ya [Flamingo Star Hippie Remix Instrumental]
EXTD=
EXTT0=
EXTT1=
EXTT2=
EXTT3=
EXTT4=
EXTT5=
EXTT6=
EXTT7=
EXTT8=
EXTT9=
EXTT10=
PLAYORDER=
